<?xml version="1.0" encoding="UTF-8" standalone="no"?>
<!-- Created with Inkscape (http://www.inkscape.org/) -->

<svg
   width="55.564995mm"
   height="55.565006mm"
   viewBox="0 0 55.564995 55.565006"
   version="1.1"
   id="svg1"
   xml:space="preserve"
   xmlns="http://www.w3.org/2000/svg"
   xmlns:svg="http://www.w3.org/2000/svg"><defs
     id="defs1" /><g
     id="layer1"
     transform="translate(-74.782058,-87.188402)"><path
       style="display:inline;opacity:1;fill:#000000;fill-opacity:1;stroke:#000000;stroke-width:0.564999;stroke-dasharray:none;stroke-opacity:1"
       d="m 119.48924,90.810602 v 7.606674 a 0.52006341,0.52006341 135 0 1 -0.52006,0.520063 H 91.744175 a 1.8922784,1.8922784 135 0 0 -1.892278,1.892281 v 24.61215 l 5.075317,5.07532 h 14.229626 a 2.3747476,2.3747476 135 0 0 2.37475,-2.37475 v -8.10171 a 0.7393669,0.7393669 45 0 0 -0.73937,-0.73937 h -10.50151 a 0.53886063,0.53886063 45 0 1 -0.538865,-0.53886 v -7.99519 a 0.61405103,0.61405103 135 0 1 0.614055,-0.61405 h 20.03183 a 0.53259534,0.53259534 45 0 1 0.5326,0.5326 v 27.99569 a 0.60778521,0.60778521 135 0 1 -0.60779,0.60779 H 91.075716 a 1.6737771,1.6737771 21.518628 0 1 -1.142309,-0.4504 l -9.222782,-8.6116 a 2.1923304,2.1923304 66.518628 0 1 -0.696122,-1.60239 l 0,-29.56215 a 9.0854487,9.0854487 135 0 1 9.085449,-9.085449 h 29.555938 a 0.83335057,0.83335057 45 0 1 0.83335,0.833351 z"
       id="path2"
       transform="translate(2.0921434,0.33764836)" /></g></svg>
